<svg width="128" height="128" viewBox="0 0 128 128" fill="none" xmlns="http://www.w3.org/2000/svg">
<path d="M40.0709 40.6025C37.9703 38.6424 36.6558 35.842 36.6558 32.7329C36.6558 26.8053 41.4339 22 47.3279 22C53.2219 22 58 26.8053 58 32.7329V94.1252M58 94.2671C58 100.195 53.2219 105 47.3279 105C41.4339 105 36.6558 100.195 36.6558 94.2671C36.6558 91.158 38.5 88.5 40.0709 86.3975M40.0709 86.3975C38.5 87.8634 36.0883 90.4954 33.7059 91.1375C28.0127 92.6716 22.1608 89.2738 20.6353 83.5481C19.6011 79.6665 20.8208 75.7116 23.4876 73.0887M40.0709 86.3975L40.5 86M22.9956 52.6129C20.6745 50.0035 19.667 46.305 20.6353 42.6708C22.1608 36.9451 28.0127 33.5473 33.7059 35.0815C34.7769 35.3701 35.7659 35.8127 36.6558 36.3792M27.2644 51.9027C22.324 51.6227 17.6976 54.8466 16.3663 59.8435C14.8408 65.5691 18.2194 71.4544 23.9126 72.9886C25.0352 73.2911 26.1639 73.4018 27.2644 73.3408M39.7053 65.998C39.4269 70.9665 42.6326 75.6193 47.6011 76.9582C51.0594 77.8901 54.5762 77.0023 57.1463 74.8783M69 94.2671V32.8748M69 32.7329C69 26.8053 73.7781 22 79.6721 22C85.5661 22 90.3442 26.8053 90.3442 32.7329C90.3442 35.842 88.5 39 86.9291 40.6025M86.9291 40.6025C86.9291 40.6025 90.9117 36.5046 93.2941 35.8625C98.9873 34.3284 104.839 37.7262 106.365 43.4519C107.399 47.3335 106.179 51.2884 103.512 53.9113M86.9291 40.6025L86.5 41M110.634 67.1565C112.159 61.4309 108.781 55.5456 103.087 54.0114C101.965 53.7089 100.836 53.5982 99.7356 53.6592M87.2945 53.7694C87.5729 58.738 84.3673 63.3908 79.3987 64.7297C75.9405 65.6616 72.4237 64.7737 69.8536 62.6497" stroke="#F3AB1B" stroke-width="6" stroke-linecap="round"/>
<path d="M78 107C78 109.209 79.7909 111 82 111C84.2091 111 86 109.209 86 107C86 104.791 84.2091 103 82 103C79.7909 103 78 104.791 78 107Z" fill="#F3AB1B"/>
<path d="M98.2071 78.6283C98.941 77.1431 101.059 77.1431 101.793 78.6283L102.786 80.637C104.47 84.0459 106.91 87.0256 109.92 89.3494L111.95 90.9169C112.987 91.7175 112.987 93.2823 111.95 94.0829L109.92 95.6504C106.91 97.9742 104.47 100.954 102.786 104.363L101.793 106.372C101.059 107.857 98.941 107.857 98.2071 106.372L97.2145 104.363C95.53 100.954 93.09 97.9742 90.0804 95.6504L88.0503 94.0829C87.0134 93.2823 87.0134 91.7175 88.0503 90.9169L90.0804 89.3494C93.09 87.0256 95.53 84.0459 97.2145 80.637L98.2071 78.6283Z" stroke="#F3AB1B" stroke-width="6" stroke-linejoin="round"/>
</svg>
