<svg width="128" height="128" viewBox="0 0 128 128" fill="none" xmlns="http://www.w3.org/2000/svg">
<path d="M109.807 78.6333H88.1668C85.6384 78.6333 83.2135 79.6377 81.4257 81.4256C79.6378 83.2134 78.6334 85.6382 78.6334 88.1666V109.807" stroke="#F3AB1B" stroke-width="6" stroke-linecap="round" stroke-linejoin="round"/>
<path d="M40.5001 23.054V30.9666C40.5001 34.7592 42.0067 38.3965 44.6885 41.0782C47.3703 43.76 51.0075 45.2666 54.8001 45.2666C57.3285 45.2666 59.7534 46.271 61.5412 48.0589C63.3291 49.8467 64.3335 52.2716 64.3335 54.7999C64.3335 60.0433 68.6235 64.3333 73.8668 64.3333C76.3952 64.3333 78.82 63.3289 80.6079 61.541C82.3957 59.7532 83.4001 57.3283 83.4001 54.7999C83.4001 49.5566 87.6901 45.2666 92.9335 45.2666H108.044" stroke="#F3AB1B" stroke-width="6" stroke-linecap="round" stroke-linejoin="round"/>
<path d="M59.5667 111.762V92.9333C59.5667 90.4049 58.5623 87.9801 56.7744 86.1922C54.9866 84.4044 52.5618 83.4 50.0334 83.4C47.505 83.4 45.0801 82.3956 43.2923 80.6077C41.5044 78.8199 40.5 76.395 40.5 73.8666V69.1C40.5 66.5716 39.4956 64.1467 37.7078 62.3589C35.9199 60.5711 33.4951 59.5667 30.9667 59.5667H16.905" stroke="#F3AB1B" stroke-width="6" stroke-linecap="round" stroke-linejoin="round"/>
<path d="M64.3333 112C90.6589 112 112 90.659 112 64.3334C112 38.0078 90.6589 16.6667 64.3333 16.6667C38.0077 16.6667 16.6666 38.0078 16.6666 64.3334C16.6666 90.659 38.0077 112 64.3333 112Z" stroke="#F3AB1B" stroke-width="6" stroke-linecap="round" stroke-linejoin="round"/>
</svg>
