<svg width="128" height="128" viewBox="0 0 128 128" fill="none" xmlns="http://www.w3.org/2000/svg">
<path d="M63.8492 119C60.5327 119 57.3166 117.5 55.206 114.9C54.9045 114.5 54.9045 113.9 55.3065 113.6C55.7085 113.3 56.3116 113.3 56.6131 113.7C58.4221 115.9 61.1357 117.2 63.9498 117.1C68.7739 117.1 72.6935 113.8 72.6935 109.6C72.6935 109.1 73.0955 108.7 73.598 108.7C74.1005 108.7 74.5025 109.1 74.5025 109.6C74.5025 114.7 69.7789 118.9 63.8492 118.9C63.9497 119 63.8492 119 63.8492 119ZM51.2864 113.9C50.8844 113.9 50.4824 113.6 50.3819 113.2C50.2814 112.7 50.5829 112.2 51.0854 112.1L78.2211 105C78.7236 104.9 79.2261 105.2 79.3266 105.7C79.4271 106.2 79.1256 106.7 78.6231 106.8L51.4874 113.9H51.2864ZM51.2864 103.7C50.8844 103.7 50.4824 103.4 50.3819 103C50.2814 102.5 50.5829 102 51.0854 101.9L78.2211 94.8C78.7236 94.7 79.2261 95 79.3266 95.5C79.4271 96 79.1256 96.5 78.6231 96.6L51.4874 103.7H51.2864ZM51.2864 93.5C50.8844 93.5 50.4824 93.2 50.3819 92.8C50.2814 92.6 50.3819 92.4 50.4824 92.2C50.1809 92.1 49.9799 91.8 49.9799 91.4C49.4774 83.5 46.4623 81.1 42.9447 78.4C38.7236 75.2 34 71.5 33.0955 57.8C32.593 50.9 35.206 44.1 40.2312 38.7C46.2613 32.3 55.005 28.6 64.1508 28.6C73.196 28.6 82.2412 32.4 88.1709 38.8C93.196 44.2 95.7085 50.9 95.206 57.8C94.3015 71.1 89.6784 74.7 85.5578 77.9C83.1457 79.8 80.8342 81.6 79.4271 85.4C79.4271 85.7 79.2261 86.1 78.9246 86.2C78.8241 86.3 78.6231 86.3 78.5226 86.3L51.5879 93.3C51.3869 93.5 51.2864 93.5 51.2864 93.5ZM64.0503 30.5C55.407 30.5 47.1658 34 41.5377 40C36.8141 45 34.5025 51.3 34.9045 57.7C35.7085 70.5 39.9296 73.8 44.0502 76.9C47.5678 79.6 51.2864 82.4 51.7889 91.2V91.4L77.6181 84.7C79.2261 80.5 81.8392 78.5 84.2513 76.5C88.1709 73.4 92.2915 70.1 93.196 57.7C93.6985 51.3 91.2864 45.1 86.6633 40.1C81.0352 34.1 72.593 30.5 64.0503 30.5ZM96.7136 92.6C96.5126 92.6 96.2111 92.5 96.0101 92.3L89.6784 85.9C89.2764 85.5 89.2764 84.9 89.6784 84.6C90.0804 84.2 90.6834 84.2 90.9849 84.6L97.4171 91C97.8191 91.4 97.8191 92 97.4171 92.3C97.2161 92.5 97.0151 92.6 96.7136 92.6ZM29.9799 92.6C29.7789 92.6 29.4774 92.5 29.2764 92.3C28.8744 91.9 28.8744 91.3 29.2764 91L35.7085 84.6C36.1106 84.2 36.7136 84.2 37.0151 84.6C37.4171 85 37.4171 85.6 37.0151 85.9L30.5829 92.3C30.4824 92.5 30.1809 92.6 29.9799 92.6ZM59.3266 72.5C59.0251 72.5 58.8241 72.4 58.6231 72.2L49.7789 62.3C49.4774 61.9 49.4774 61.3 49.8794 61C50.2814 60.7 50.8844 60.7 51.1859 61.1L59.3266 70.2L78.1206 48.9C78.4221 48.5 79.0251 48.5 79.4271 48.8C79.8292 49.1 79.8292 49.7 79.5276 50.1L60.0302 72.1C59.8291 72.3 59.5276 72.4 59.3266 72.5ZM113.095 58.7H103.95C103.447 58.7 103.045 58.3 103.045 57.8C103.045 57.3 103.447 56.9 103.95 56.9H113.095C113.598 56.9 114 57.3 114 57.8C114 58.3 113.598 58.7 113.095 58.7ZM24.0503 56.9H14.9045C14.402 56.9 14 56.5 14 56C14 55.5 14.402 55.1 14.9045 55.1H24.0503C24.5528 55.1 24.9548 55.5 24.9548 56C24.9548 56.5 24.5528 56.9 24.0503 56.9ZM91.5879 29.8C91.3869 29.8 91.0854 29.7 90.8844 29.5C90.4824 29.1 90.4824 28.5 90.8844 28.2L97.3166 21.8C97.7186 21.4 98.3216 21.4 98.6231 21.8C98.9246 22.2 99.0251 22.8 98.6231 23.1L92.191 29.5C92.0905 29.7 91.8895 29.8 91.5879 29.8ZM37.7186 29.8C37.5176 29.8 37.2161 29.7 37.0151 29.5L30.5829 23.1C30.1809 22.7 30.1809 22.1 30.5829 21.8C30.9849 21.5 31.5879 21.4 31.8894 21.8L38.3216 28.2C38.7236 28.6 38.7236 29.2 38.3216 29.5C38.2211 29.7 38.0201 29.8 37.7186 29.8ZM64.9548 19.9C64.4523 19.9 64.0503 19.5 64.0503 19V9.9C64.0503 9.4 64.4523 9 64.9548 9C65.4573 9 65.8593 9.4 65.8593 9.9V19C65.8593 19.5 65.4573 19.9 64.9548 19.9Z" fill="#F3AB1B" stroke="#F3AB1B" stroke-width="3.5"/>
</svg>
