<svg width="128" height="128" viewBox="0 0 128 128" fill="none" xmlns="http://www.w3.org/2000/svg">
<path d="M45 33C34.5066 33 26 41.5066 26 52V83C26 93.4934 34.5066 102 45 102H64H83C93.4934 102 102 93.4934 102 83V52C102 41.5066 93.4934 33 83 33H73.5H64H58.5M49 40V26M79 40V26" stroke="#F3AB1B" stroke-width="6" stroke-linecap="round"/>
<path d="M62.2402 54.2589C62.996 52.8593 65.004 52.8593 65.7598 54.2589L68.81 59.9076C69.0983 60.4413 69.6132 60.8154 70.2099 60.9246L76.5247 62.08C78.0893 62.3663 78.7099 64.2761 77.6123 65.4274L73.1827 70.0738C72.7641 70.5129 72.5674 71.1182 72.648 71.7195L73.5005 78.0822C73.7117 79.6588 72.0872 80.8391 70.653 80.151L64.8652 77.374C64.3182 77.1116 63.6818 77.1116 63.1348 77.374L57.347 80.151C55.9128 80.8391 54.2883 79.6588 54.4995 78.0822L55.352 71.7195C55.4326 71.1182 55.2359 70.5129 54.8173 70.0738L50.3877 65.4274C49.2901 64.2761 49.9107 62.3663 51.4753 62.08L57.7901 60.9246C58.3868 60.8154 58.9017 60.4413 59.19 59.9076L62.2402 54.2589Z" stroke="#F3AB1B" stroke-width="6"/>
</svg>
