<svg width="128" height="128" viewBox="0 0 128 128" fill="none" xmlns="http://www.w3.org/2000/svg">
<path d="M70.4879 107.246C63.0098 107.246 55.4562 104.971 48.96 100.193C32.5687 88.286 29.0185 65.2305 40.8777 48.7731C41.1043 48.4698 41.5575 48.3939 41.8596 48.6215C42.1618 48.849 42.2373 49.304 42.0107 49.6074C36.4966 57.2673 34.2305 66.5956 35.6657 75.9998C37.1008 85.3282 42.1618 93.5189 49.7154 99.1311C65.4269 110.659 87.5591 107.17 98.965 91.3196C110.447 75.5448 106.896 53.3236 91.1848 41.8717C78.7969 32.7708 62.1033 32.7708 49.6399 41.8717C49.3377 42.0992 48.8845 42.0233 48.6579 41.72C48.4313 41.4166 48.5068 40.9616 48.809 40.7341C61.7257 31.3299 79.0235 31.3299 91.9402 40.7341C108.256 52.7168 111.882 75.7723 100.023 92.1538C92.9977 102.013 81.8183 107.246 70.4879 107.246Z" fill="#F3AB1B" stroke="#F3AB1B" stroke-width="2.5"/>
<path d="M70.4879 97.3868C65.578 97.3868 60.5171 96.0217 56.0605 93.1398C43.6725 85.1007 39.9712 68.4917 47.9781 55.978C48.2047 55.6747 48.5824 55.523 48.96 55.7505C49.2622 55.978 49.4133 56.3572 49.1867 56.7364C41.633 68.5675 45.1077 84.3423 56.8913 91.9263C68.675 99.5104 84.3865 96.0217 91.9402 84.1906C99.4938 72.3595 96.0191 56.5847 84.2355 49.0007C75.9265 43.6919 65.2003 43.6919 56.8913 49.0007C56.5892 49.2282 56.136 49.0765 55.9094 48.7732C55.6828 48.4698 55.7583 48.0148 56.136 47.7873C64.8982 42.1751 76.2286 42.1751 84.9908 47.7873C97.4543 55.7505 101.08 72.4354 93.0732 84.949C87.9368 92.9881 79.3256 97.3868 70.4879 97.3868Z" fill="#F3AB1B" stroke="#F3AB1B" stroke-width="2.5"/>
<path d="M70.4878 87.4517C68.1462 87.4517 65.729 86.9208 63.3874 85.8591C54.9274 81.9154 51.2261 71.8286 55.154 63.3345C55.305 62.9553 55.7583 62.8036 56.0604 62.9553C56.4381 63.107 56.5892 63.562 56.4381 63.8654C52.8123 71.6769 56.2115 80.9295 63.9917 84.494C71.7719 88.0585 80.9874 84.7215 84.5376 76.9099C86.2749 73.1179 86.426 68.9467 84.9908 65.003C83.5556 61.1351 80.6852 58.0257 76.9839 56.2813C72.8295 54.3853 68.0707 54.3853 63.9917 56.2813C63.614 56.433 63.2363 56.2813 63.0853 55.9021C62.9342 55.5229 63.0853 55.1437 63.463 54.9921C67.9951 52.8685 73.1316 52.8685 77.6638 54.9921C81.7427 56.8881 84.8397 60.3009 86.426 64.5479C88.0122 68.795 87.7856 73.4213 85.8972 77.5166C83.0268 83.8114 76.9084 87.4517 70.4878 87.4517Z" fill="#F3AB1B" stroke="#F3AB1B" stroke-width="2.5"/>
<path d="M70.4878 77.5164C69.3547 77.5164 68.2217 77.213 67.2397 76.6821C65.5779 75.7721 64.3693 74.3311 63.8406 72.5109C63.6895 72.1317 63.9161 71.7525 64.2938 71.6008C64.6715 71.4492 65.0492 71.6767 65.2002 72.0559C65.6535 73.4968 66.6354 74.7103 67.9196 75.3929C69.2792 76.0754 70.7899 76.2271 72.2251 75.7721C73.6603 75.317 74.8689 74.3311 75.5487 73.0418C76.2285 71.7525 76.3796 70.1599 75.9264 68.7189C75.3976 66.8987 73.9625 65.5336 72.2251 65.0027C71.8474 64.851 71.6208 64.4718 71.7719 64.0926C71.923 63.7134 72.3007 63.4859 72.6783 63.6376C74.8689 64.3202 76.6062 66.0645 77.286 68.2639C77.8148 70.084 77.6637 71.98 76.7573 73.6485C75.8509 75.317 74.4157 76.5305 72.6028 77.0613C71.923 77.4405 71.1676 77.5164 70.4878 77.5164Z" fill="#F3AB1B" stroke="#F3AB1B" stroke-width="2.5"/>
<path d="M70.0346 70.8427C69.8835 70.8427 69.6569 70.7668 69.5058 70.6152L24.6373 25.566C24.3352 25.2626 24.3352 24.8834 24.6373 24.5801C24.9395 24.2767 25.3171 24.2767 25.6193 24.5801L70.5634 69.6292C70.8655 69.9326 70.8655 70.3118 70.5634 70.6152C70.4123 70.7668 70.2612 70.8427 70.0346 70.8427Z" fill="#F3AB1B" stroke="#F3AB1B" stroke-width="2.5"/>
<path d="M31.2845 45.7395C31.1335 45.7395 30.9069 45.6637 30.7558 45.512L20.1807 34.8944C20.0296 34.7427 19.9541 34.4393 20.0296 34.2118C20.0296 33.9843 20.2562 33.7568 20.4829 33.6809L29.5472 30.799C29.9249 30.6473 30.3026 30.8748 30.4536 31.254C30.6047 31.6332 30.3781 32.0124 30.0004 32.1641L21.9936 34.7427L31.5111 44.2986L40.1978 41.5683C40.5755 41.4166 40.9532 41.6441 41.1043 42.0233C41.2553 42.4025 41.0287 42.7818 40.651 42.9334L31.5867 45.8154C31.4356 45.7395 31.3601 45.7395 31.2845 45.7395Z" fill="#F3AB1B" stroke="#F3AB1B" stroke-width="2.5"/>
<path d="M42.0106 41.1892C41.9351 41.1892 41.8595 41.1892 41.784 41.1892C41.4063 41.0375 41.1797 40.6583 41.3308 40.2791L44.0501 31.5575L34.608 22.0774L32.1153 30.1165C31.9643 30.4957 31.5866 30.7232 31.2089 30.5716C30.8312 30.4199 30.6046 30.0407 30.7557 29.6615L33.6261 20.5606C33.7016 20.3331 33.8527 20.1056 34.0793 20.0298C34.3059 19.9539 34.5325 20.0298 34.7591 20.1814L45.3342 30.7991C45.4853 30.9508 45.5608 31.2541 45.4853 31.4816L42.6149 40.5825C42.6149 41.0375 42.3127 41.1892 42.0106 41.1892Z" fill="#F3AB1B" stroke="#F3AB1B" stroke-width="2.5"/>
</svg>
