<svg width="128" height="128" viewBox="0 0 128 128" fill="none" xmlns="http://www.w3.org/2000/svg">
<path d="M68.3584 27.5C77.0126 27.5 84.0537 34.5411 84.0537 43.1953C84.0536 48.7436 81.1623 53.6108 76.8018 56.4062L75.3652 57.3271H81.0303C83.3294 57.3271 85.2069 59.2048 85.207 61.5039V69.7246L85.957 69.291L97.668 62.5264L97.6709 62.5244C98.3205 62.143 99.1022 62.1411 99.7686 62.5264L99.9453 62.6279C100.503 63.0254 100.825 63.6498 100.825 64.3359V93.792C100.825 94.5475 100.434 95.2282 99.7686 95.6133L99.7627 95.6162C99.4325 95.8122 99.0732 95.9052 98.7119 95.9053C98.3608 95.9053 97.9978 95.8049 97.6553 95.6133L85.9443 88.8486L85.1943 88.415V96.6357C85.1943 98.9349 83.3167 100.812 81.0176 100.812H31.6768C29.3776 100.812 27.5 98.9349 27.5 96.6357V61.5039C27.5001 59.2048 29.3776 57.3271 31.6768 57.3271H35.7314L34.5254 56.4268C31.5061 54.1715 29.5498 50.5884 29.5498 46.5518C29.5499 39.7562 35.0909 34.2268 41.8877 34.2266C46.1834 34.2266 49.9773 36.4415 52.1826 39.7803L52.8213 40.748L53.0859 39.6191C54.7129 32.6893 60.9355 27.5002 68.3584 27.5ZM31.6895 58.8896C30.2474 58.8896 29.0753 60.0619 29.0752 61.5039V96.6357C29.0752 98.0778 30.2474 99.25 31.6895 99.25H81.0303C82.4724 99.25 83.6445 98.0778 83.6445 96.6357V61.5039C83.6444 60.0619 82.4723 58.8896 81.0303 58.8896H31.6895ZM98.5146 63.9141L85.459 71.3838L85.207 71.5283V86.6104L85.457 86.7549L98.4482 94.2627L98.6914 93.8428L99.1992 93.8438L99.2627 64.3496L99.2646 63.4854L98.5146 63.9141ZM41.9014 35.8018C35.963 35.8018 31.1251 40.6245 31.125 46.5645C31.125 52.5041 35.9753 57.3398 41.9014 57.3398C47.8284 57.3396 52.6641 52.49 52.6641 46.5645C52.6639 40.6387 47.8408 35.802 41.9014 35.8018ZM53.5488 50.5537C52.7368 52.9284 51.2224 54.9611 49.25 56.4404L48.0498 57.3398H61.3398L59.918 56.4209C57.6308 54.9417 55.7427 52.9035 54.4639 50.4824L53.9229 49.459L53.5488 50.5537ZM68.3584 29.0625C60.5615 29.0627 54.2266 35.3983 54.2266 43.1953C54.2267 50.9921 60.5616 57.327 68.3584 57.3271C76.1554 57.3271 82.491 50.9922 82.4912 43.1953C82.4912 35.3982 76.1555 29.0625 68.3584 29.0625Z" fill="#F3AB1B" stroke="#F3AB1B"/>
<path d="M49.0569 66.4197C50.0179 65.8681 51.147 65.8712 52.092 66.4207L52.093 66.4216L69.4417 76.4412C70.3999 76.9919 70.9592 77.9664 70.9592 79.0701C70.9592 80.1703 70.3905 81.1466 69.4417 81.699L52.093 91.7185L52.092 91.7195C51.6209 91.9934 51.0932 92.1257 50.5754 92.1257C50.0575 92.1257 49.5291 91.9935 49.0579 91.7195C48.1081 91.1672 47.5384 90.1903 47.5383 89.0896V69.0505C47.5384 67.9498 48.1081 66.9729 49.0579 66.4207L49.0569 66.4197ZM50.5754 67.5642C50.2459 67.5642 49.9804 67.6775 49.8401 67.7576L49.8362 67.7605C49.6153 67.8894 49.1008 68.279 49.1008 69.0378V89.0769C49.101 89.8587 49.6441 90.2328 49.8196 90.3445L49.8274 90.3494L49.8362 90.3542C50.055 90.4819 50.6497 90.7434 51.3147 90.3523L68.6604 80.3357L68.6633 80.3337C69.3196 79.9477 69.3967 79.3174 69.3967 79.0574C69.3967 78.7975 69.3198 78.1672 68.6633 77.781L68.6604 77.7791L51.3118 67.7595L51.2991 67.7517L51.2854 67.7449C51.0481 67.6262 50.8055 67.5643 50.5754 67.5642ZM41.9524 49.4861C43.534 49.4862 44.8088 50.7619 44.8088 52.3435C44.8086 53.9249 43.5338 55.1998 41.9524 55.2C40.3709 55.2 39.0952 53.925 39.095 52.3435C39.095 50.7631 40.3823 49.4861 41.9524 49.4861ZM68.4358 47.1931C70.3377 47.1932 71.8948 48.7502 71.8948 50.6521C71.8946 52.5539 70.3376 54.111 68.4358 54.1111C66.5339 54.1111 64.9769 52.554 64.9768 50.6521C64.9768 48.7501 66.5338 47.1931 68.4358 47.1931ZM41.9524 51.0486C41.2406 51.0486 40.6575 51.6317 40.6575 52.3435C40.6577 53.0551 41.2408 53.6375 41.9524 53.6375C42.6639 53.6373 43.2461 53.055 43.2463 52.3435C43.2463 51.6318 42.6641 51.0487 41.9524 51.0486ZM68.4358 48.7556C67.3909 48.7556 66.5393 49.6072 66.5393 50.6521C66.5394 51.6969 67.391 52.5486 68.4358 52.5486C69.4805 52.5485 70.3321 51.6968 70.3323 50.6521C70.3323 49.6073 69.4806 48.7557 68.4358 48.7556ZM36.1477 43.7332C37.7281 43.7332 39.0051 45.0205 39.0051 46.5906C39.005 48.1721 37.7293 49.447 36.1477 49.447C34.5663 49.4468 33.2914 48.172 33.2913 46.5906C33.2913 45.009 34.5662 43.7334 36.1477 43.7332ZM47.6926 43.6697C49.2741 43.6699 50.549 44.9447 50.5491 46.5261C50.5491 48.1064 49.2625 49.3833 47.6926 49.3835C46.111 49.3835 44.8352 48.1078 44.8352 46.5261C44.8353 44.9445 46.111 43.6697 47.6926 43.6697ZM36.1477 45.2957C35.4361 45.2959 34.8538 45.879 34.8538 46.5906C34.8539 47.3021 35.4362 47.8843 36.1477 47.8845C36.8594 47.8845 37.4425 47.3022 37.4426 46.5906C37.4426 45.8788 36.8595 45.2957 36.1477 45.2957ZM47.6926 45.2322C46.9809 45.2322 46.3978 45.8144 46.3977 46.5261C46.3977 47.2379 46.9809 47.821 47.6926 47.821C48.4042 47.8208 48.9866 47.2377 48.9866 46.5261C48.9865 45.8146 48.4042 45.2324 47.6926 45.2322ZM60.9407 39.7742C62.8424 39.7744 64.3995 41.3314 64.3997 43.2332C64.3997 45.135 62.8425 46.6919 60.9407 46.6921C59.0387 46.6921 57.4817 45.1351 57.4817 43.2332C57.4818 41.3313 59.0388 39.7742 60.9407 39.7742ZM75.8538 39.697C77.7557 39.697 79.3127 41.255 79.3127 43.157C79.3125 45.0588 77.7556 46.616 75.8538 46.616C73.9521 46.6158 72.395 45.0587 72.3948 43.157C72.3948 41.2551 73.9519 39.6972 75.8538 39.697ZM60.9407 41.3367C59.8959 41.3367 59.0443 42.1884 59.0442 43.2332C59.0442 44.278 59.8958 45.1296 60.9407 45.1296C61.9854 45.1294 62.8372 44.2779 62.8372 43.2332C62.837 42.1885 61.9853 41.3369 60.9407 41.3367ZM75.8538 41.2595C74.809 41.2597 73.9573 42.1122 73.9573 43.157C73.9575 44.2016 74.8092 45.0533 75.8538 45.0535C76.8985 45.0535 77.75 44.2017 77.7502 43.157C77.7502 42.1121 76.8987 41.2595 75.8538 41.2595ZM41.9006 37.9294C43.4822 37.9294 44.7579 39.2044 44.7581 40.7859C44.7581 42.3663 43.4707 43.6433 41.9006 43.6433C40.3191 43.6431 39.0442 42.3675 39.0442 40.7859C39.0444 39.2045 40.3192 37.9296 41.9006 37.9294ZM41.9006 39.4919C41.1891 39.4921 40.6069 40.0744 40.6067 40.7859C40.6067 41.4976 41.189 42.0806 41.9006 42.0808C42.6124 42.0808 43.1956 41.4977 43.1956 40.7859C43.1954 40.0743 42.6123 39.4919 41.9006 39.4919ZM68.3586 32.2791C70.2606 32.2791 71.8176 33.8361 71.8176 35.738C71.8176 37.64 70.2606 39.197 68.3586 39.197C66.4567 39.197 64.8997 37.64 64.8997 35.738C64.8997 33.8361 66.4567 32.2791 68.3586 32.2791ZM68.3586 33.8416C67.3138 33.8416 66.4622 34.6932 66.4622 35.738C66.4622 36.7829 67.3138 37.6345 68.3586 37.6345C69.4035 37.6345 70.2551 36.7829 70.2551 35.738C70.2551 34.6932 69.4035 33.8416 68.3586 33.8416Z" fill="#F3AB1B" stroke="#F3AB1B"/>
</svg>
