<svg width="128" height="128" viewBox="0 0 128 128" fill="none" xmlns="http://www.w3.org/2000/svg">
<path fill-rule="evenodd" clip-rule="evenodd" d="M17.8334 59.5506C17.8334 53.0793 23.076 47.8333 29.5431 47.8333H72.1237C78.5908 47.8333 83.8334 53.0793 83.8334 59.5506V85.1159C83.8334 91.5873 78.5908 96.8333 72.1237 96.8333H29.5431C23.076 96.8333 17.8334 91.5873 17.8334 85.1159V59.5506ZM29.5431 54.2246C26.6035 54.2246 24.2205 56.6089 24.2205 59.5506V85.1159C24.2205 88.0576 26.6035 90.4419 29.5431 90.4419H72.1237C75.0635 90.4419 77.4463 88.0576 77.4463 85.1159V59.5506C77.4463 56.6089 75.0635 54.2246 72.1237 54.2246H29.5431Z" fill="#F3AB1B"/>
<path fill-rule="evenodd" clip-rule="evenodd" d="M108.51 52.4484C109.341 53.0572 109.833 54.0322 109.833 55.0701V89.5965C109.833 90.6422 109.334 91.6231 108.493 92.2308C107.652 92.838 106.572 92.9973 105.595 92.6581L79.9949 83.7727C78.7016 83.3239 77.8334 82.0939 77.8334 80.7111V63.5748C77.8334 62.1765 78.7213 60.9361 80.035 60.4994L105.635 51.9949C106.61 51.671 107.679 51.8397 108.51 52.4484ZM84.2334 65.9187V78.3996L103.433 85.0636V59.54L84.2334 65.9187Z" fill="#F3AB1B"/>
<path fill-rule="evenodd" clip-rule="evenodd" d="M34.8334 80.8333C34.8334 79.1765 36.2661 77.8333 38.0334 77.8333H63.6334C65.4006 77.8333 66.8334 79.1765 66.8334 80.8333C66.8334 82.4901 65.4006 83.8333 63.6334 83.8333H38.0334C36.2661 83.8333 34.8334 82.4901 34.8334 80.8333Z" fill="#F3AB1B"/>
<path fill-rule="evenodd" clip-rule="evenodd" d="M25.8334 50.8333C25.8334 39.7876 35.0489 30.8333 46.4167 30.8333H74.5834C76.3782 30.8333 77.8334 32.2471 77.8334 33.9911C77.8334 35.7352 76.3782 37.149 74.5834 37.149H46.4167C38.6387 37.149 32.3334 43.2757 32.3334 50.8333H25.8334Z" fill="#F3AB1B"/>
</svg>
