<svg width="128" height="128" viewBox="0 0 128 128" fill="none" xmlns="http://www.w3.org/2000/svg">
<path d="M92 77V85" stroke="#F3AB1B" stroke-width="6" stroke-linecap="round"/>
<path d="M20 75C20 66.1634 27.1634 59 36 59H91C99.8366 59 107 66.1634 107 75V87C107 95.8366 99.8366 103 91 103H87.2896C81.36 103 75.9167 99.7207 73.1451 94.4788L71.0292 90.4772C68.0389 84.8217 59.9494 84.7898 56.9145 90.4214L54.6678 94.5904C51.8764 99.7703 46.467 103 40.5828 103H36C27.1634 103 20 95.8366 20 87V75Z" stroke="#F3AB1B" stroke-width="6" stroke-linejoin="round"/>
<path d="M52 44C55.3563 40.7973 59.8336 39.0055 64.494 39C69.1544 38.9945 73.6361 40.7758 77 43.9706M41 35C47.3098 28.5946 55.7273 25.011 64.4887 25C73.2502 24.989 81.6758 28.5516 88 34.9411" stroke="#F3AB1B" stroke-width="6" stroke-linecap="round" stroke-linejoin="round"/>
</svg>
