<svg xmlns="http://www.w3.org/2000/svg" xmlns:xlink="http://www.w3.org/1999/xlink" x="0px" y="0px" viewBox="0 0 100.7 101.7" style="enable-background:new 0 0 100.7 101.7;" xml:space="preserve" width="120"  height="120" ><g stroke="#DD4242" fill="#DD4242">	<path d="M44.3,76.7c-0.5,0-0.9-0.4-0.9-0.9l-0.1-47.1c0-5.8-5.8-10.5-12.9-10.5c-6.4,0-11.2,4-13,10.8L6.1,72.1  C6,72.6,5.5,72.9,5,72.8c-0.5-0.1-0.8-0.6-0.7-1.1l11.2-43.3c1.5-5.9,6.2-12.2,14.8-12.2c8.1,0,14.8,5.6,14.8,12.4l0.1,47.1  C45.2,76.2,44.8,76.7,44.3,76.7C44.3,76.7,44.3,76.7,44.3,76.7z" stroke="#DD4242" fill="#DD4242"></path>	<path d="M40.8,20.9c-0.5,0-0.9-0.4-0.9-0.9l0-9c0-3.2-3.2-5.7-7.1-5.7c-4.9,0-6.5,4.3-7,6.2L24,18.3c-0.1,0.5-0.6,0.8-1.1,0.7  c-0.5-0.1-0.8-0.6-0.7-1.1l1.8-6.9c1.2-4.7,4.5-7.6,8.8-7.6c5,0,9,3.4,9,7.6l0,9C41.8,20.5,41.4,20.9,40.8,20.9  C40.8,20.9,40.8,20.9,40.8,20.9z" stroke="#DD4242" fill="#DD4242"></path>	<path d="M56.3,76.7C56.3,76.7,56.3,76.7,56.3,76.7c-0.5,0-0.9-0.4-0.9-0.9l0.1-47.1c0-6.8,6.6-12.4,14.8-12.4  c8.6,0,13.2,6.3,14.8,12.2l11.2,43.3c0.1,0.5-0.2,1-0.7,1.1c-0.5,0.1-1-0.2-1.1-0.7L83.2,28.8c-1.8-6.7-6.6-10.8-13-10.8  c-7.1,0-12.9,4.7-12.9,10.5l-0.1,47.1C57.2,76.2,56.8,76.7,56.3,76.7z" stroke="#DD4242" fill="#DD4242"></path>	<path d="M59.7,20.9C59.7,20.9,59.7,20.9,59.7,20.9c-0.5,0-0.9-0.4-0.9-0.9l0-9c0-4.2,4-7.6,9-7.6c4.3,0,7.6,2.8,8.8,7.6l1.8,6.9  c0.1,0.5-0.2,1-0.7,1.1c-0.5,0.1-1-0.2-1.1-0.7l-1.8-6.9c-0.5-1.9-2.1-6.2-7-6.2c-3.9,0-7.1,2.6-7.1,5.7l0,9  C60.7,20.5,60.2,20.9,59.7,20.9z" stroke="#DD4242" fill="#DD4242"></path>	<path d="M24.1,98.4c-10.6,0-19.7-8.1-20.7-18.9c-1-11.4,7.4-21.6,18.8-22.6l0,0h0c11.4-1,21.6,7.4,22.6,18.8  c0.5,5.5-1.2,10.9-4.7,15.2c-3.6,4.3-8.6,6.9-14.1,7.4C25.4,98.3,24.8,98.4,24.1,98.4z M22.4,58.7C12,59.6,4.3,68.9,5.3,79.3  c0.9,10.4,10.2,18.1,20.6,17.1c5-0.5,9.6-2.8,12.8-6.7c3.2-3.9,4.8-8.8,4.3-13.8C42.1,65.4,32.8,57.8,22.4,58.7L22.4,58.7z" stroke="#DD4242" fill="#DD4242"></path>	<path d="M36.5,77.4c-0.5,0-0.9-0.4-0.9-0.8c-0.6-6.3-6.2-11-12.5-10.4c-0.5,0-1-0.3-1-0.8c0-0.5,0.3-1,0.8-1  c7.3-0.7,13.9,4.8,14.5,12.1C37.5,76.9,37.1,77.3,36.5,77.4C36.6,77.4,36.6,77.4,36.5,77.4z" stroke="#DD4242" fill="#DD4242"></path>	<path d="M76.5,98.4c-4.9,0-9.5-1.7-13.3-4.8C59,90,56.3,85,55.8,79.4c-1-11.4,7.4-21.6,18.8-22.6l0,0c11.4-1,21.6,7.4,22.6,18.8  c0.5,5.5-1.2,10.9-4.7,15.2c-3.6,4.3-8.6,6.9-14.1,7.4C77.8,98.3,77.1,98.4,76.5,98.4z M74.8,58.7c-10.4,0.9-18.1,10.2-17.1,20.6  c0.5,5,2.8,9.6,6.7,12.8c3.9,3.2,8.8,4.8,13.8,4.3c5-0.5,9.6-2.8,12.8-6.7c3.2-3.9,4.8-8.8,4.3-13.8C94.5,65.4,85.2,57.8,74.8,58.7  L74.8,58.7z" stroke="#DD4242" fill="#DD4242"></path>	<path d="M88.9,77.4c-0.5,0-0.9-0.4-0.9-0.8c-0.6-6.3-6.2-11-12.5-10.4c-0.5,0-1-0.3-1-0.8c0-0.5,0.3-1,0.8-1  c7.3-0.7,13.9,4.8,14.5,12.1C89.9,76.9,89.5,77.3,88.9,77.4C89,77.4,89,77.4,88.9,77.4z" stroke="#DD4242" fill="#DD4242"></path>	<path d="M50.3,78c-3.8,0-6.8-3.1-6.8-6.8c0-3.8,3.1-6.8,6.8-6.8c3.8,0,6.8,3.1,6.8,6.8C57.2,75,54.1,78,50.3,78z M50.3,66.3  c-2.7,0-4.9,2.2-4.9,4.9c0,2.7,2.2,4.9,4.9,4.9s4.9-2.2,4.9-4.9C55.3,68.5,53.1,66.3,50.3,66.3z" stroke="#DD4242" fill="#DD4242"></path>	<path d="M56.2,39.7c-0.5,0-0.9-0.4-0.9-0.9c0-2.7-2.2-4.9-4.9-4.9s-4.9,2.2-4.9,4.9c0,0.5-0.4,0.9-0.9,0.9s-0.9-0.4-0.9-0.9  c0-3.8,3.1-6.8,6.8-6.8c3.8,0,6.8,3.1,6.8,6.8C57.2,39.3,56.7,39.7,56.2,39.7z" stroke="#DD4242" fill="#DD4242"></path></g></svg>