<svg xmlns="http://www.w3.org/2000/svg" xmlns:xlink="http://www.w3.org/1999/xlink" x="0px" y="0px" viewBox="0 0 106.9 118.1" style="enable-background:new 0 0 106.9 118.1;" xml:space="preserve" width="120"  height="120" ><path d="M53.3,114.1c-3.3,0-6.5-1.5-8.6-4.1c-0.3-0.4-0.3-1,0.1-1.3c0.4-0.3,1-0.3,1.3,0.1c1.8,2.2,4.5,3.5,7.3,3.4 c4.8,0,8.7-3.3,8.7-7.5c0-0.5,0.4-0.9,0.9-0.9s0.9,0.4,0.9,0.9c0,5.1-4.7,9.3-10.6,9.3C53.4,114.1,53.3,114.1,53.3,114.1z M40.8,109 c-0.4,0-0.8-0.3-0.9-0.7c-0.1-0.5,0.2-1,0.7-1.1l27-7.1c0.5-0.1,1,0.2,1.1,0.7c0.1,0.5-0.2,1-0.7,1.1l-27,7.1 C40.9,109,40.8,109,40.8,109z M40.8,98.8c-0.4,0-0.8-0.3-0.9-0.7c-0.1-0.5,0.2-1,0.7-1.1l27-7.1c0.5-0.1,1,0.2,1.1,0.7 c0.1,0.5-0.2,1-0.7,1.1l-27,7.1C40.9,98.8,40.8,98.8,40.8,98.8z M40.8,88.6c-0.4,0-0.8-0.3-0.9-0.7c-0.1-0.2,0-0.4,0.1-0.6 c-0.3-0.1-0.5-0.4-0.5-0.8c-0.5-7.9-3.5-10.3-7-13c-4.2-3.2-8.9-6.9-9.8-20.6c-0.5-6.9,2.1-13.7,7.1-19.1c6-6.4,14.7-10.1,23.8-10.1 c9,0,18,3.8,23.9,10.2c5,5.4,7.5,12.1,7,19c-0.9,13.3-5.5,16.9-9.6,20.1c-2.4,1.9-4.7,3.7-6.1,7.5c0,0.3-0.2,0.7-0.5,0.8 c-0.1,0.1-0.3,0.1-0.4,0.1l-26.8,7C40.9,88.6,40.8,88.6,40.8,88.6z M53.5,25.6c-8.6,0-16.8,3.5-22.4,9.5c-4.7,5-7,11.3-6.6,17.7 c0.8,12.8,5,16.1,9.1,19.2c3.5,2.7,7.2,5.5,7.7,14.3c0,0.1,0,0.1,0,0.2L67,79.8c1.6-4.2,4.2-6.2,6.6-8.2c3.9-3.1,8-6.4,8.9-18.8 c0.5-6.4-1.9-12.6-6.5-17.6C70.4,29.2,62,25.6,53.5,25.6z M86,87.7c-0.2,0-0.5-0.1-0.7-0.3L79,81c-0.4-0.4-0.4-1,0-1.3 c0.4-0.4,1-0.4,1.3,0l6.4,6.4c0.4,0.4,0.4,1,0,1.3C86.5,87.6,86.3,87.7,86,87.7z M19.6,87.7c-0.2,0-0.5-0.1-0.7-0.3 c-0.4-0.4-0.4-1,0-1.3l6.4-6.4c0.4-0.4,1-0.4,1.3,0c0.4,0.4,0.4,1,0,1.3l-6.4,6.4C20.1,87.6,19.8,87.7,19.6,87.7z M48.8,67.6 c-0.3,0-0.5-0.1-0.7-0.3l-8.8-9.9c-0.3-0.4-0.3-1,0.1-1.3c0.4-0.3,1-0.3,1.3,0.1l8.1,9.1l18.7-21.3c0.3-0.4,0.9-0.4,1.3-0.1 c0.4,0.3,0.4,0.9,0.1,1.3L49.5,67.2C49.3,67.4,49,67.5,48.8,67.6C48.8,67.6,48.8,67.6,48.8,67.6z M102.3,53.8h-9.1 c-0.5,0-0.9-0.4-0.9-0.9s0.4-0.9,0.9-0.9h9.1c0.5,0,0.9,0.4,0.9,0.9S102.8,53.8,102.3,53.8z M13.7,52H4.6c-0.5,0-0.9-0.4-0.9-0.9 s0.4-0.9,0.9-0.9h9.1c0.5,0,0.9,0.4,0.9,0.9S14.2,52,13.7,52z M80.9,24.9c-0.2,0-0.5-0.1-0.7-0.3c-0.4-0.4-0.4-1,0-1.3l6.4-6.4 c0.4-0.4,1-0.4,1.3,0s0.4,1,0,1.3l-6.4,6.4C81.4,24.8,81.2,24.9,80.9,24.9z M27.3,24.9c-0.2,0-0.5-0.1-0.7-0.3l-6.4-6.4 c-0.4-0.4-0.4-1,0-1.3s1-0.4,1.3,0l6.4,6.4c0.4,0.4,0.4,1,0,1.3C27.8,24.8,27.6,24.9,27.3,24.9z M54.4,15c-0.5,0-0.9-0.4-0.9-0.9V5 c0-0.5,0.4-0.9,0.9-0.9s0.9,0.4,0.9,0.9v9.1C55.3,14.6,54.9,15,54.4,15z" stroke="#DD4242" fill="#DD4242"></path></svg>