<svg xmlns="http://www.w3.org/2000/svg" xmlns:xlink="http://www.w3.org/1999/xlink" x="0px" y="0px" viewBox="0 0 111.3 108.4" style="enable-background:new 0 0 111.3 108.4;" xml:space="preserve" width="120"  height="120" ><g stroke="#DD4242" fill="#DD4242">	<g stroke="#DD4242" fill="#DD4242">		<path d="M42.5,104.2c-0.2,0-0.3,0-0.5-0.1L28,95.6L14.5,104c-0.3,0.2-0.7,0.2-1,0s-0.4-0.6-0.4-1l3.7-16L4.6,76.9   c-0.3-0.2-0.4-0.6-0.3-1c0.1-0.4,0.4-0.6,0.8-0.6l16.4-1.4l5.9-14.8c0.1-0.3,0.5-0.6,0.8-0.6c0.4,0,0.7,0.2,0.9,0.6l6.4,15.2   l15.9,1c0.4,0,0.7,0.3,0.8,0.6c0.1,0.4,0,0.7-0.3,1L39.5,87.6l3.9,15.4c0.1,0.4,0,0.7-0.3,1C42.9,104.1,42.7,104.2,42.5,104.2z    M28,93.5c0.2,0,0.3,0,0.5,0.1l12.7,7.6l-3.5-13.8c-0.1-0.3,0-0.7,0.3-0.9L49,76.9L34.9,76c-0.3,0-0.7-0.2-0.8-0.6l-5.7-13.6   l-5.3,13.2c-0.1,0.3-0.4,0.5-0.8,0.6L7.6,76.9L18.5,86c0.3,0.2,0.4,0.6,0.3,0.9l-3.4,14.4l12-7.6C27.6,93.6,27.8,93.5,28,93.5z    M22.2,74.7L22.2,74.7L22.2,74.7z" stroke="#DD4242" fill="#DD4242"></path>	</g>	<g stroke="#DD4242" fill="#DD4242">		<path d="M28.3,45.7c-11.4,0-20.7-9.3-20.7-20.7S16.8,4.2,28.3,4.2l0,0l0,0c5.5,0,10.8,2.2,14.7,6.1c3.9,3.9,6.1,9.1,6.1,14.7   C49,36.4,39.7,45.7,28.3,45.7z M28.3,6C17.9,6,9.4,14.5,9.4,24.9s8.5,18.9,18.9,18.9c10.4,0,18.9-8.5,18.9-18.9   c0-5-2-9.8-5.5-13.4C38.1,8,33.3,6,28.3,6L28.3,6z" stroke="#DD4242" fill="#DD4242"></path>	</g>	<g stroke="#DD4242" fill="#DD4242">		<path d="M106.1,45.7H64.3c-0.3,0-0.6-0.2-0.8-0.5c-0.2-0.3-0.2-0.6,0-0.9L84.4,8.1c0.2-0.3,0.5-0.5,0.8-0.5l0,0   c0.3,0,0.6,0.2,0.8,0.5l20.9,36.2c0.2,0.3,0.2,0.6,0,0.9C106.7,45.5,106.4,45.7,106.1,45.7z M65.9,43.8h38.6L85.2,10.4L65.9,43.8z   " stroke="#DD4242" fill="#DD4242"></path>	</g>	<g stroke="#DD4242" fill="#DD4242">		<path d="M104.5,102.7H66c-0.5,0-0.9-0.4-0.9-0.9V63.3c0-0.5,0.4-0.9,0.9-0.9h38.5c0.5,0,0.9,0.4,0.9,0.9v38.5   C105.4,102.3,105,102.7,104.5,102.7z M66.9,100.8h36.6V64.2H66.9V100.8z" stroke="#DD4242" fill="#DD4242"></path>	</g></g></svg>