<svg xmlns="http://www.w3.org/2000/svg" xmlns:xlink="http://www.w3.org/1999/xlink" x="0px" y="0px" viewBox="0 0 46.7 60" style="enable-background:new 0 0 46.7 60;" xml:space="preserve" width="46.7"  height="60" ><style type="text/css">	.st0{fill:#DD4242;}</style><path class="st0" d="M23.3,57.5c-1,0-2-0.5-2.6-1.3L6.2,36.7c-5.4-7.2-5.7-16.9-0.9-24.5c2.2-3.4,5.3-6.1,8.9-7.8 c2.5-1.2,5.2-1.8,7.9-2c0.4,0,0.7,0,1.1,0c3,0,5.9,0.6,8.6,1.8c5.3,2.3,9.4,6.7,11.4,12.1c0.5,1.4,0.9,2.8,1.1,4.2 c0.9,5.7-0.6,11.5-4,16.1L26,56.2C25.3,57,24.4,57.5,23.3,57.5z M23.1,11c-7.1,0-12.9,5.8-12.9,12.9S16,36.7,23.1,36.7 c7.1,0,12.9-5.8,12.9-12.9c0,0,0,0,0,0C35.9,16.8,30.2,11,23.1,11L23.1,11z"/></svg>