<svg xmlns="http://www.w3.org/2000/svg" xmlns:xlink="http://www.w3.org/1999/xlink" x="0px" y="0px" viewBox="0 0 124.7 124.2" style="enable-background:new 0 0 124.7 124.2;" xml:space="preserve" width="124.7"  height="124.2" ><g stroke="#DD4242" fill="#DD4242">	<g stroke="#DD4242" fill="#DD4242">		<path d="M71.5,119.6c-9.9,0-19.9-3-28.5-9.3C21.3,94.6,16.6,64.2,32.3,42.5c0.3-0.4,0.9-0.5,1.3-0.2c0.4,0.3,0.5,0.9,0.2,1.3   C26.5,53.7,23.5,66,25.4,78.4c1.9,12.3,8.6,23.1,18.6,30.5c20.8,15.2,50.1,10.6,65.2-10.3c15.2-20.8,10.5-50.1-10.3-65.2   c-16.4-12-38.5-12-55,0c-0.4,0.3-1,0.2-1.3-0.2c-0.3-0.4-0.2-1,0.2-1.3c17.1-12.4,40-12.4,57.1,0c21.6,15.8,26.4,46.2,10.7,67.8   C101.3,112.7,86.5,119.6,71.5,119.6z" stroke="#DD4242" fill="#DD4242"></path>	</g>	<g stroke="#DD4242" fill="#DD4242">		<path d="M71.5,106.6c-6.5,0-13.2-1.8-19.1-5.6C36,90.4,31.1,68.5,41.7,52c0.3-0.4,0.8-0.6,1.3-0.3c0.4,0.3,0.6,0.8,0.3,1.3   c-10,15.6-5.4,36.4,10.2,46.4c15.6,10,36.4,5.4,46.4-10.2c10-15.6,5.4-36.4-10.2-46.4c-11-7-25.2-7-36.2,0c-0.4,0.3-1,0.1-1.3-0.3   c-0.3-0.4-0.2-1,0.3-1.3c11.6-7.4,26.6-7.4,38.2,0c16.5,10.5,21.3,32.5,10.7,49C94.6,100.8,83.2,106.6,71.5,106.6z" stroke="#DD4242" fill="#DD4242"></path>	</g>	<g stroke="#DD4242" fill="#DD4242">		<path d="M71.5,93.5c-3.1,0-6.3-0.7-9.4-2.1c-11.2-5.2-16.1-18.5-10.9-29.7c0.2-0.5,0.8-0.7,1.2-0.5c0.5,0.2,0.7,0.8,0.5,1.2   c-4.8,10.3-0.3,22.5,10,27.2c10.3,4.7,22.5,0.3,27.2-10c2.3-5,2.5-10.5,0.6-15.7c-1.9-5.1-5.7-9.2-10.6-11.5   c-5.5-2.5-11.8-2.5-17.2,0c-0.5,0.2-1,0-1.2-0.5c-0.2-0.5,0-1,0.5-1.2c6-2.8,12.8-2.8,18.8,0c5.4,2.5,9.5,7,11.6,12.6   c2.1,5.6,1.8,11.7-0.7,17.1C88.1,88.7,80,93.5,71.5,93.5z" stroke="#DD4242" fill="#DD4242"></path>	</g>	<g stroke="#DD4242" fill="#DD4242">		<path d="M71.5,80.4c-1.5,0-3-0.4-4.3-1.1c-2.2-1.2-3.8-3.1-4.5-5.5c-0.2-0.5,0.1-1,0.6-1.2c0.5-0.2,1,0.1,1.2,0.6   c0.6,1.9,1.9,3.5,3.6,4.4c1.8,0.9,3.8,1.1,5.7,0.5c1.9-0.6,3.5-1.9,4.4-3.6s1.1-3.8,0.5-5.7c-0.7-2.4-2.6-4.2-4.9-4.9   c-0.5-0.2-0.8-0.7-0.6-1.2c0.2-0.5,0.7-0.8,1.2-0.6c2.9,0.9,5.2,3.2,6.1,6.1c0.7,2.4,0.5,4.9-0.7,7.1c-1.2,2.2-3.1,3.8-5.5,4.5   C73.4,80.3,72.4,80.4,71.5,80.4z" stroke="#DD4242" fill="#DD4242"></path>	</g>	<g stroke="#DD4242" fill="#DD4242">		<path d="M70.9,71.6c-0.2,0-0.5-0.1-0.7-0.3L10.8,11.9c-0.4-0.4-0.4-0.9,0-1.3c0.4-0.4,0.9-0.4,1.3,0L71.6,70   c0.4,0.4,0.4,0.9,0,1.3C71.4,71.5,71.2,71.6,70.9,71.6z" stroke="#DD4242" fill="#DD4242"></path>	</g>	<g stroke="#DD4242" fill="#DD4242">		<path d="M19.6,38.5c-0.2,0-0.5-0.1-0.7-0.3l-14-14c-0.2-0.2-0.3-0.6-0.2-0.9C4.7,23,5,22.7,5.3,22.6l12-3.8c0.5-0.2,1,0.1,1.2,0.6   c0.2,0.5-0.1,1-0.6,1.2L7.3,24l12.6,12.6l11.5-3.6c0.5-0.2,1,0.1,1.2,0.6c0.2,0.5-0.1,1-0.6,1.2l-12,3.8   C19.8,38.5,19.7,38.5,19.6,38.5z" stroke="#DD4242" fill="#DD4242"></path>	</g>	<g stroke="#DD4242" fill="#DD4242">		<path d="M33.8,32.5c-0.1,0-0.2,0-0.3,0c-0.5-0.2-0.8-0.7-0.6-1.2l3.6-11.5L24,7.3l-3.3,10.6c-0.2,0.5-0.7,0.8-1.2,0.6   c-0.5-0.2-0.8-0.7-0.6-1.2l3.8-12C22.8,5,23,4.7,23.3,4.6c0.3-0.1,0.6,0,0.9,0.2l14,14c0.2,0.2,0.3,0.6,0.2,0.9l-3.8,12   C34.6,32.3,34.2,32.5,33.8,32.5z" stroke="#DD4242" fill="#DD4242"></path>	</g></g></svg>